<svg width="48" height="96" viewBox="0 0 48 96" fill="none" xmlns="http://www.w3.org/2000/svg">
<path d="M7.3745 61.5649C7.18356 61.3844 6.95894 61.2434 6.71349 61.1497C6.46803 61.0561 6.20653 61.0117 5.94393 61.0192C5.68132 61.0266 5.42276 61.0857 5.18298 61.193C4.94321 61.3004 4.72693 61.4539 4.5465 61.6449C4.36606 61.8358 4.225 62.0604 4.13137 62.3059C4.03774 62.5513 3.99337 62.8128 4.0008 63.0754C4.00823 63.338 4.06731 63.5966 4.17466 63.8364C4.28202 64.0762 4.43556 64.2924 4.6265 64.4729L22.6265 81.4729C22.9978 81.8239 23.4895 82.0196 24.0005 82.0196C24.5115 82.0196 25.0032 81.8239 25.3745 81.4729L43.3765 64.4729C43.5716 64.2936 43.7292 64.0774 43.84 63.8367C43.9509 63.5961 44.0128 63.3358 44.0222 63.071C44.0316 62.8062 43.9883 62.5422 43.8948 62.2943C43.8013 62.0464 43.6595 61.8195 43.4776 61.6269C43.2957 61.4342 43.0773 61.2797 42.8352 61.1721C42.593 61.0646 42.3319 61.0063 42.067 61.0005C41.8021 60.9947 41.5387 61.0416 41.2921 61.1385C41.0455 61.2354 40.8206 61.3803 40.6305 61.5649L24.0005 77.2689L7.3745 61.5649Z" fill="#F3F2EE"/>
<path d="M7.3745 37.5649C7.18356 37.3844 6.95894 37.2434 6.71349 37.1497C6.46803 37.0561 6.20653 37.0117 5.94393 37.0192C5.68132 37.0266 5.42276 37.0857 5.18298 37.193C4.94321 37.3004 4.72693 37.4539 4.5465 37.6449C4.36606 37.8358 4.225 38.0604 4.13137 38.3059C4.03774 38.5513 3.99337 38.8128 4.0008 39.0754C4.00823 39.338 4.06731 39.5966 4.17466 39.8364C4.28202 40.0762 4.43556 40.2924 4.6265 40.4729L22.6265 57.4729C22.9978 57.8239 23.4895 58.0196 24.0005 58.0196C24.5115 58.0196 25.0032 57.8239 25.3745 57.4729L43.3765 40.4729C43.5716 40.2936 43.7292 40.0774 43.84 39.8367C43.9509 39.5961 44.0128 39.3358 44.0222 39.071C44.0316 38.8062 43.9883 38.5422 43.8948 38.2943C43.8013 38.0464 43.6595 37.8195 43.4776 37.6269C43.2957 37.4342 43.0773 37.2797 42.8352 37.1721C42.593 37.0646 42.3319 37.0063 42.067 37.0005C41.8021 36.9947 41.5387 37.0416 41.2921 37.1385C41.0455 37.2354 40.8206 37.3803 40.6305 37.5649L24.0005 53.2689L7.3745 37.5649Z" fill="#F3F2EE"/>
<path d="M7.3745 13.5649C7.18356 13.3844 6.95894 13.2434 6.71349 13.1497C6.46803 13.0561 6.20653 13.0117 5.94393 13.0192C5.68132 13.0266 5.42276 13.0857 5.18298 13.193C4.94321 13.3004 4.72693 13.4539 4.5465 13.6449C4.36606 13.8358 4.225 14.0604 4.13137 14.3059C4.03774 14.5513 3.99337 14.8128 4.0008 15.0754C4.00823 15.338 4.06731 15.5966 4.17466 15.8364C4.28202 16.0762 4.43556 16.2924 4.6265 16.4729L22.6265 33.4729C22.9978 33.8239 23.4895 34.0196 24.0005 34.0196C24.5115 34.0196 25.0032 33.8239 25.3745 33.4729L43.3765 16.4729C43.5716 16.2936 43.7292 16.0774 43.84 15.8367C43.9509 15.5961 44.0128 15.3358 44.0222 15.071C44.0316 14.8062 43.9883 14.5422 43.8948 14.2943C43.8013 14.0464 43.6595 13.8195 43.4776 13.6269C43.2957 13.4342 43.0773 13.2797 42.8352 13.1721C42.593 13.0646 42.3319 13.0063 42.067 13.0005C41.8021 12.9947 41.5387 13.0416 41.2921 13.1385C41.0455 13.2354 40.8206 13.3803 40.6305 13.5649L24.0005 29.2689L7.3745 13.5649Z" fill="#F3F2EE"/>
</svg>
