<svg aria-hidden="true" style="position: absolute; width: 0; height: 0; overflow: hidden;" version="1.1" xmlns="http://www.w3.org/2000/svg" xmlns:xlink="http://www.w3.org/1999/xlink">
<defs>
<symbol id="icon-arrows" viewBox="0 0 32 32">
<path fill="#f3f2ee" style="fill: var(--color1, #f3f2ee)" d="M10.458 20.522c-0.064-0.060-0.139-0.107-0.22-0.138s-0.169-0.046-0.257-0.044c-0.088 0.002-0.174 0.022-0.254 0.058s-0.152 0.087-0.212 0.151c-0.060 0.064-0.107 0.139-0.138 0.22s-0.046 0.169-0.044 0.256 0.022 0.174 0.058 0.254c0.036 0.080 0.087 0.152 0.151 0.212l6 5.667c0.124 0.117 0.288 0.182 0.458 0.182s0.334-0.065 0.458-0.182l6.001-5.667c0.065-0.060 0.118-0.132 0.154-0.212s0.058-0.167 0.061-0.255-0.011-0.176-0.042-0.259c-0.031-0.083-0.078-0.158-0.139-0.222s-0.133-0.116-0.214-0.152c-0.081-0.036-0.168-0.055-0.256-0.057s-0.176 0.014-0.258 0.046c-0.082 0.032-0.157 0.081-0.221 0.142l-5.543 5.235-5.542-5.235z"></path>
<path fill="#f3f2ee" style="fill: var(--color1, #f3f2ee)" d="M10.458 12.522c-0.064-0.060-0.139-0.107-0.22-0.138s-0.169-0.046-0.257-0.043c-0.088 0.002-0.174 0.022-0.254 0.058s-0.152 0.087-0.212 0.151c-0.060 0.064-0.107 0.139-0.138 0.22s-0.046 0.169-0.044 0.257 0.022 0.174 0.058 0.254c0.036 0.080 0.087 0.152 0.151 0.212l6 5.667c0.124 0.117 0.288 0.182 0.458 0.182s0.334-0.065 0.458-0.182l6.001-5.667c0.065-0.060 0.118-0.132 0.154-0.212s0.058-0.167 0.061-0.255-0.011-0.176-0.042-0.259c-0.031-0.083-0.078-0.158-0.139-0.222s-0.133-0.116-0.214-0.152c-0.081-0.036-0.168-0.055-0.256-0.057s-0.176 0.014-0.258 0.046c-0.082 0.032-0.157 0.081-0.221 0.142l-5.543 5.235-5.542-5.235z"></path>
<path fill="#f3f2ee" style="fill: var(--color1, #f3f2ee)" d="M10.458 4.522c-0.064-0.060-0.139-0.107-0.22-0.138s-0.169-0.046-0.257-0.043c-0.088 0.002-0.174 0.022-0.254 0.058s-0.152 0.087-0.212 0.151c-0.060 0.064-0.107 0.138-0.138 0.22s-0.046 0.169-0.044 0.256 0.022 0.174 0.058 0.254c0.036 0.080 0.087 0.152 0.151 0.212l6 5.667c0.124 0.117 0.288 0.182 0.458 0.182s0.334-0.065 0.458-0.182l6.001-5.667c0.065-0.060 0.118-0.132 0.154-0.212s0.058-0.167 0.061-0.255-0.011-0.176-0.042-0.259c-0.031-0.083-0.078-0.158-0.139-0.222s-0.133-0.116-0.214-0.152c-0.081-0.036-0.168-0.055-0.256-0.057s-0.176 0.014-0.258 0.046c-0.082 0.032-0.157 0.081-0.221 0.142l-5.543 5.235-5.542-5.235z"></path>
</symbol>
<symbol id="icon-instagram" viewBox="0 0 32 32">
<path d="M10.4 2.667h11.2c4.267 0 7.733 3.467 7.733 7.733v11.2c0 2.051-0.815 4.018-2.265 5.468s-3.417 2.265-5.468 2.265h-11.2c-4.267 0-7.733-3.467-7.733-7.733v-11.2c0-2.051 0.815-4.018 2.265-5.468s3.417-2.265 5.468-2.265zM10.133 5.333c-1.273 0-2.494 0.506-3.394 1.406s-1.406 2.121-1.406 3.394v11.733c0 2.653 2.147 4.8 4.8 4.8h11.733c1.273 0 2.494-0.506 3.394-1.406s1.406-2.121 1.406-3.394v-11.733c0-2.653-2.147-4.8-4.8-4.8h-11.733zM23 7.333c0.442 0 0.866 0.176 1.179 0.488s0.488 0.736 0.488 1.178c0 0.442-0.176 0.866-0.488 1.178s-0.737 0.488-1.179 0.488c-0.442 0-0.866-0.176-1.179-0.488s-0.488-0.736-0.488-1.178c0-0.442 0.176-0.866 0.488-1.178s0.737-0.488 1.179-0.488zM16 9.333c1.768 0 3.464 0.702 4.714 1.953s1.953 2.946 1.953 4.714-0.702 3.464-1.953 4.714c-1.25 1.25-2.946 1.953-4.714 1.953s-3.464-0.702-4.714-1.953c-1.25-1.25-1.953-2.946-1.953-4.714s0.702-3.464 1.953-4.714c1.25-1.25 2.946-1.953 4.714-1.953zM16 12c-1.061 0-2.078 0.421-2.828 1.172s-1.172 1.768-1.172 2.828c0 1.061 0.421 2.078 1.172 2.828s1.768 1.172 2.828 1.172c1.061 0 2.078-0.421 2.828-1.172s1.172-1.768 1.172-2.828c0-1.061-0.421-2.078-1.172-2.828s-1.768-1.172-2.828-1.172z"></path>
</symbol>
<symbol id="icon-linkedin" viewBox="0 0 32 32">
<path d="M9.253 6.665c-0 0.707-0.282 1.385-0.782 1.885s-1.179 0.78-1.886 0.78c-0.707-0-1.385-0.282-1.885-0.782s-0.78-1.179-0.78-1.886c0-0.707 0.282-1.385 0.782-1.885s1.179-0.78 1.886-0.78c0.707 0 1.385 0.282 1.885 0.782s0.78 1.179 0.78 1.886zM9.333 11.305h-5.333v16.693h5.333v-16.693zM17.759 11.305h-5.307v16.693h5.253v-8.76c0-4.88 6.36-5.333 6.36 0v8.76h5.267v-10.573c0-8.227-9.413-7.92-11.627-3.88l0.053-2.24z"></path>
</symbol>
<symbol id="icon-facebook" viewBox="0 0 32 32">
<path d="M29.333 16c0-7.36-5.973-13.333-13.333-13.333s-13.333 5.973-13.333 13.333c0 6.453 4.587 11.827 10.667 13.067v-9.067h-2.667v-4h2.667v-3.333c0-2.573 2.093-4.667 4.667-4.667h3.333v4h-2.667c-0.733 0-1.333 0.6-1.333 1.333v2.667h4v4h-4v9.267c6.733-0.667 12-6.347 12-13.267z"></path>
</symbol>
<symbol id="icon-tg-light" viewBox="0 0 32 32">
<path d="M16 0c-8.832 0-16 7.168-16 16s7.168 16 16 16c8.832 0 16-7.168 16-16s-7.168-16-16-16zM23.424 10.88c-0.24 2.528-1.28 8.672-1.808 11.504-0.224 1.2-0.672 1.6-1.088 1.648-0.928 0.080-1.632-0.608-2.528-1.2-1.408-0.928-2.208-1.504-3.568-2.4-1.584-1.040-0.56-1.616 0.352-2.544 0.24-0.24 4.336-3.968 4.416-4.304 0.011-0.051 0.010-0.104-0.004-0.154s-0.040-0.096-0.076-0.134c-0.096-0.080-0.224-0.048-0.336-0.032-0.144 0.032-2.384 1.52-6.752 4.464-0.64 0.432-1.216 0.656-1.728 0.64-0.576-0.016-1.664-0.32-2.48-0.592-1.008-0.32-1.792-0.496-1.728-1.056 0.032-0.288 0.432-0.576 1.184-0.88 4.672-2.032 7.776-3.376 9.328-4.016 4.448-1.856 5.36-2.176 5.968-2.176 0.128 0 0.432 0.032 0.624 0.192 0.16 0.128 0.208 0.304 0.224 0.432-0.016 0.096 0.016 0.384 0 0.608z"></path>
</symbol>
<symbol id="icon-fb-light" viewBox="0 0 32 32">
<path d="M29.333 16c0-7.36-5.973-13.333-13.333-13.333s-13.333 5.973-13.333 13.333c0 6.453 4.587 11.827 10.667 13.067v-9.067h-2.667v-4h2.667v-3.333c0-2.573 2.093-4.667 4.667-4.667h3.333v4h-2.667c-0.733 0-1.333 0.6-1.333 1.333v2.667h4v4h-4v9.267c6.733-0.667 12-6.347 12-13.267z"></path>
</symbol>
<symbol id="icon-ins-light" viewBox="0 0 32 32">
<path  d="M10.4 2.667h11.2c4.267 0 7.733 3.467 7.733 7.733v11.2c0 2.051-0.815 4.018-2.265 5.468s-3.417 2.265-5.468 2.265h-11.2c-4.267 0-7.733-3.467-7.733-7.733v-11.2c0-2.051 0.815-4.018 2.265-5.468s3.417-2.265 5.468-2.265zM10.133 5.333c-1.273 0-2.494 0.506-3.394 1.406s-1.406 2.121-1.406 3.394v11.733c0 2.653 2.147 4.8 4.8 4.8h11.733c1.273 0 2.494-0.506 3.394-1.406s1.406-2.121 1.406-3.394v-11.733c0-2.653-2.147-4.8-4.8-4.8h-11.733zM23 7.333c0.442 0 0.866 0.176 1.178 0.488s0.488 0.736 0.488 1.178-0.176 0.866-0.488 1.178c-0.313 0.313-0.736 0.488-1.178 0.488s-0.866-0.176-1.178-0.488c-0.313-0.313-0.488-0.736-0.488-1.178s0.176-0.866 0.488-1.178c0.313-0.313 0.736-0.488 1.178-0.488zM16 9.333c1.768 0 3.464 0.702 4.714 1.953s1.953 2.946 1.953 4.714c0 1.768-0.702 3.464-1.953 4.714s-2.946 1.953-4.714 1.953c-1.768 0-3.464-0.702-4.714-1.953s-1.953-2.946-1.953-4.714c0-1.768 0.702-3.464 1.953-4.714s2.946-1.953 4.714-1.953zM16 12c-1.061 0-2.078 0.421-2.828 1.172s-1.172 1.768-1.172 2.828c0 1.061 0.421 2.078 1.172 2.828s1.768 1.172 2.828 1.172c1.061 0 2.078-0.421 2.828-1.172s1.172-1.768 1.172-2.828c0-1.061-0.421-2.078-1.172-2.828s-1.768-1.172-2.828-1.172z"></path>
</symbol>
<symbol id="icon-star" viewBox="0 0 32 32">
<path d="M32 12.408l-11.056-1.607-4.944-10.018-4.944 10.018-11.056 1.607 8 7.798-1.889 11.011 9.889-5.199 9.889 5.199-1.889-11.011 8-7.798z"></path>
</symbol>
</defs>
</svg>
